<svg width="155" height="150" viewBox="0 0 155 150" fill="none" xmlns="http://www.w3.org/2000/svg">
<line x1="0.3125" y1="1.71875" x2="154.687" y2="1.71875" stroke="white" stroke-opacity="0.1" stroke-width="0.3125" stroke-dasharray="0.62"/>
<line x1="0.3125" y1="30.9437" x2="154.687" y2="30.9437" stroke="white" stroke-opacity="0.1" stroke-width="0.3125" stroke-dasharray="0.62"/>
<line x1="0.3125" y1="60.1687" x2="154.687" y2="60.1687" stroke="white" stroke-opacity="0.1" stroke-width="0.3125" stroke-dasharray="0.62"/>
<line x1="0.3125" y1="89.3938" x2="154.687" y2="89.3938" stroke="white" stroke-opacity="0.1" stroke-width="0.3125" stroke-dasharray="0.62"/>
<line x1="0.3125" y1="118.619" x2="154.687" y2="118.619" stroke="white" stroke-opacity="0.1" stroke-width="0.3125" stroke-dasharray="0.62"/>
<line x1="0.3125" y1="147.844" x2="154.687" y2="147.844" stroke="white" stroke-opacity="0.1" stroke-width="0.3125"/>
<line x1="0.15625" y1="148" x2="0.15625" y2="1.875" stroke="white" stroke-opacity="0.1" stroke-width="0.3125" stroke-dasharray="0.62"/>
<line x1="25.8855" y1="148" x2="25.8855" y2="1.875" stroke="white" stroke-opacity="0.1" stroke-width="0.3125" stroke-dasharray="0.62"/>
<line x1="51.6145" y1="148" x2="51.6145" y2="1.875" stroke="white" stroke-opacity="0.1" stroke-width="0.3125" stroke-dasharray="0.62"/>
<line x1="77.3438" y1="148" x2="77.3438" y2="1.875" stroke="white" stroke-opacity="0.1" stroke-width="0.3125" stroke-dasharray="0.62"/>
<line x1="103.073" y1="148" x2="103.073" y2="1.875" stroke="white" stroke-opacity="0.1" stroke-width="0.3125" stroke-dasharray="0.62"/>
<line x1="128.802" y1="148" x2="128.802" y2="1.875" stroke="white" stroke-opacity="0.1" stroke-width="0.3125" stroke-dasharray="0.62"/>
<line x1="154.531" y1="148" x2="154.531" y2="1.875" stroke="white" stroke-opacity="0.1" stroke-width="0.3125" stroke-dasharray="0.62"/>
<rect opacity="0.6" x="4.375" y="66.0325" width="17.1875" height="81.6125" fill="#00798C"/>
<rect x="4.375" y="66.0325" width="17.1875" height="0.9375" fill="#00798C"/>
<path d="M14.8124 138.241C14.8124 138.45 14.771 138.637 14.6881 138.804C14.6053 138.971 14.4916 139.105 14.3472 139.205C14.2028 139.306 14.0383 139.361 13.8536 139.371V138.944C14.0181 138.928 14.1543 138.853 14.262 138.721C14.3685 138.587 14.4218 138.427 14.4218 138.241C14.4218 138.092 14.3869 137.96 14.317 137.844C14.2472 137.726 14.1513 137.635 14.0294 137.568C13.9063 137.501 13.7672 137.467 13.6121 137.467C13.4535 137.467 13.3121 137.502 13.1878 137.572C13.0623 137.641 12.9635 137.735 12.8912 137.856C12.819 137.977 12.7823 138.115 12.7812 138.27C12.78 138.381 12.7971 138.495 12.8327 138.612C12.867 138.73 12.9114 138.826 12.9658 138.902L12.9161 139.314L11.1263 139.094V137.204H11.517V138.724L12.5894 138.852V138.831C12.5302 138.756 12.4811 138.663 12.442 138.55C12.403 138.438 12.3834 138.321 12.3834 138.199C12.3834 137.976 12.4367 137.778 12.5432 137.604C12.6486 137.429 12.793 137.291 12.9765 137.192C13.1599 137.091 13.3695 137.041 13.605 137.041C13.837 137.041 14.0442 137.093 14.2265 137.197C14.4076 137.3 14.5508 137.442 14.6562 137.623C14.7603 137.805 14.8124 138.011 14.8124 138.241ZM14.8124 135.128C14.81 135.277 14.7816 135.427 14.7272 135.576C14.6727 135.725 14.581 135.861 14.452 135.984C14.3218 136.107 14.146 136.206 13.9246 136.281C13.7021 136.355 13.4227 136.393 13.0866 136.393C12.7646 136.393 12.4793 136.362 12.2307 136.302C11.981 136.242 11.7709 136.154 11.6004 136.039C11.4288 135.924 11.2986 135.786 11.2098 135.624C11.121 135.46 11.0766 135.276 11.0766 135.072C11.0766 134.868 11.1175 134.687 11.1991 134.528C11.2796 134.368 11.3921 134.238 11.5365 134.138C11.6809 134.037 11.8472 133.972 12.0354 133.942V134.376C11.8721 134.416 11.7365 134.494 11.6288 134.61C11.5211 134.726 11.4672 134.88 11.4672 135.072C11.4672 135.353 11.5898 135.575 11.8348 135.737C12.0798 135.898 12.4237 135.979 12.8664 135.981V135.952C12.7658 135.886 12.68 135.807 12.6089 135.716C12.5367 135.624 12.4811 135.522 12.442 135.411C12.403 135.299 12.3834 135.182 12.3834 135.057C12.3834 134.849 12.4355 134.658 12.5397 134.486C12.6427 134.313 12.7853 134.174 12.9676 134.07C13.1487 133.966 13.3564 133.914 13.5908 133.914C13.8157 133.914 14.0217 133.964 14.2087 134.065C14.3946 134.165 14.5425 134.307 14.6526 134.489C14.7615 134.67 14.8148 134.883 14.8124 135.128ZM14.4218 135.128C14.4218 134.979 14.3845 134.845 14.3099 134.727C14.2354 134.608 14.1353 134.513 14.0099 134.445C13.8844 134.375 13.7447 134.34 13.5908 134.34C13.4405 134.34 13.3038 134.374 13.1807 134.441C13.0564 134.507 12.9575 134.599 12.8841 134.716C12.8108 134.832 12.7741 134.965 12.7741 135.114C12.7741 135.227 12.7965 135.331 12.8415 135.428C12.8853 135.525 12.9457 135.611 13.0226 135.684C13.0996 135.756 13.1878 135.813 13.2872 135.855C13.3854 135.896 13.489 135.917 13.5979 135.917C13.7423 135.917 13.8773 135.883 14.0028 135.815C14.1282 135.747 14.2294 135.653 14.3064 135.535C14.3833 135.415 14.4218 135.28 14.4218 135.128Z" fill="white" fill-opacity="0.7"/>
<rect opacity="0.6" x="30.2085" y="54.3674" width="17.1875" height="92.6375" fill="#00798C"/>
<rect x="30.2085" y="54.3674" width="17.1875" height="0.9375" fill="#00798C"/>
<path d="M40.6459 137.858C40.6435 138.007 40.6151 138.156 40.5607 138.305C40.5062 138.454 40.4145 138.591 40.2855 138.714C40.1553 138.837 39.9795 138.936 39.7581 139.01C39.5356 139.085 39.2562 139.122 38.9201 139.122C38.5981 139.122 38.3128 139.092 38.0642 139.031C37.8145 138.971 37.6044 138.884 37.4339 138.769C37.2623 138.654 37.1321 138.515 37.0433 138.353C36.9545 138.19 36.9101 138.006 36.9101 137.801C36.9101 137.597 36.9509 137.416 37.0326 137.258C37.1131 137.098 37.2256 136.968 37.37 136.867C37.5144 136.766 37.6807 136.701 37.8689 136.672V137.105C37.7056 137.145 37.57 137.223 37.4623 137.339C37.3546 137.455 37.3007 137.609 37.3007 137.801C37.3007 138.083 37.4233 138.305 37.6683 138.467C37.9133 138.628 38.2572 138.709 38.6999 138.71V138.682C38.5993 138.615 38.5134 138.537 38.4424 138.446C38.3702 138.353 38.3146 138.251 38.2755 138.14C38.2365 138.029 38.2169 137.911 38.2169 137.787C38.2169 137.578 38.269 137.388 38.3732 137.215C38.4762 137.042 38.6188 136.904 38.8011 136.8C38.9822 136.695 39.1899 136.643 39.4243 136.643C39.6492 136.643 39.8552 136.694 40.0422 136.794C40.2281 136.895 40.376 137.036 40.4861 137.219C40.595 137.4 40.6483 137.613 40.6459 137.858ZM40.2553 137.858C40.2553 137.709 40.218 137.575 40.1434 137.457C40.0688 137.337 39.9688 137.243 39.8434 137.174C39.7179 137.104 39.5782 137.069 39.4243 137.069C39.274 137.069 39.1373 137.103 39.0142 137.171C38.8899 137.237 38.791 137.329 38.7176 137.446C38.6443 137.562 38.6076 137.694 38.6076 137.844C38.6076 137.956 38.63 138.061 38.675 138.158C38.7188 138.255 38.7792 138.34 38.8561 138.414C38.9331 138.486 39.0213 138.543 39.1207 138.584C39.2189 138.625 39.3225 138.646 39.4314 138.646C39.5758 138.646 39.7108 138.612 39.8362 138.545C39.9617 138.476 40.0629 138.383 40.1399 138.264C40.2168 138.145 40.2553 138.009 40.2553 137.858ZM39.8505 136.03H39.4882L36.9598 134.432V134.17H37.5209V134.347L39.4314 135.554H39.4598V133.402H39.8505V136.03ZM40.5962 134.319H39.7404H39.5717H36.9598V133.9H40.5962V134.319Z" fill="white" fill-opacity="0.7"/>
<rect opacity="0.6" x="56.0417" y="36.8701" width="17.1875" height="111.362" fill="#00798C"/>
<rect x="56.0417" y="36.8701" width="17.1875" height="0.9375" fill="#00798C"/>
<path d="M66.4294 140.264L63.2121 138.638H63.1837V140.513H62.7931V138.183H63.205L66.4294 139.802V140.264ZM66.4792 136.392C66.4768 136.541 66.4484 136.69 66.3939 136.839C66.3395 136.989 66.2477 137.125 66.1187 137.248C65.9885 137.371 65.8127 137.47 65.5914 137.544C65.3688 137.619 65.0895 137.656 64.7533 137.656C64.4313 137.656 64.1461 137.626 63.8975 137.566C63.6477 137.505 63.4376 137.418 63.2672 137.303C63.0955 137.188 62.9653 137.05 62.8765 136.887C62.7878 136.724 62.7434 136.54 62.7434 136.335C62.7434 136.132 62.7842 135.95 62.8659 135.792C62.9464 135.632 63.0588 135.502 63.2032 135.401C63.3476 135.301 63.514 135.236 63.7022 135.206V135.639C63.5388 135.679 63.4033 135.758 63.2956 135.874C63.1878 135.99 63.134 136.143 63.134 136.335C63.134 136.617 63.2565 136.839 63.5015 137.001C63.7466 137.162 64.0904 137.243 64.5331 137.244V137.216C64.4325 137.15 64.3467 137.071 64.2757 136.98C64.2035 136.887 64.1478 136.786 64.1088 136.674C64.0697 136.563 64.0502 136.445 64.0502 136.321C64.0502 136.113 64.1023 135.922 64.2064 135.749C64.3094 135.576 64.4521 135.438 64.6343 135.334C64.8155 135.23 65.0232 135.178 65.2576 135.178C65.4825 135.178 65.6884 135.228 65.8755 135.328C66.0613 135.429 66.2093 135.571 66.3194 135.753C66.4283 135.934 66.4815 136.147 66.4792 136.392ZM66.0885 136.392C66.0885 136.243 66.0512 136.109 65.9767 135.991C65.9021 135.871 65.8021 135.777 65.6766 135.708C65.5511 135.639 65.4115 135.604 65.2576 135.604C65.1072 135.604 64.9705 135.637 64.8474 135.705C64.7231 135.771 64.6243 135.863 64.5509 135.98C64.4775 136.096 64.4408 136.229 64.4408 136.378C64.4408 136.49 64.4633 136.595 64.5083 136.692C64.5521 136.789 64.6124 136.874 64.6894 136.948C64.7663 137.02 64.8545 137.077 64.9539 137.118C65.0522 137.16 65.1558 137.18 65.2647 137.18C65.4091 137.18 65.544 137.147 65.6695 137.079C65.795 137.011 65.8962 136.917 65.9731 136.799C66.0501 136.679 66.0885 136.544 66.0885 136.392Z" fill="white" fill-opacity="0.7"/>
<rect opacity="0.6" x="81.875" y="33.9537" width="17.1875" height="114.212" fill="#00798C"/>
<rect x="81.875" y="33.9537" width="17.1875" height="0.9375" fill="#00798C"/>
<path d="M92.2627 140.264L89.0454 138.638H89.017V140.513H88.6263V138.183H89.0383L92.2627 139.802V140.264ZM92.3124 136.43C92.3124 136.674 92.2692 136.889 92.1828 137.076C92.0952 137.262 91.9751 137.407 91.8224 137.511C91.6685 137.615 91.4933 137.667 91.2968 137.666C91.1429 137.667 91.0009 137.637 90.8706 137.575C90.7393 137.513 90.6298 137.429 90.5422 137.323C90.4534 137.215 90.3972 137.095 90.3735 136.962H90.3522C90.3072 137.136 90.2095 137.275 90.0592 137.378C89.9077 137.481 89.7355 137.532 89.5425 137.531C89.3579 137.532 89.1927 137.485 89.0471 137.39C88.9015 137.296 88.7867 137.165 88.7027 137C88.6186 136.833 88.5766 136.643 88.5766 136.43C88.5766 136.219 88.6186 136.031 88.7027 135.865C88.7867 135.699 88.9015 135.569 89.0471 135.474C89.1927 135.379 89.3579 135.33 89.5425 135.329C89.7355 135.33 89.9077 135.383 90.0592 135.487C90.2095 135.59 90.3072 135.727 90.3522 135.897H90.3735C90.3972 135.766 90.4534 135.647 90.5422 135.542C90.6298 135.437 90.7393 135.353 90.8706 135.29C91.0009 135.227 91.1429 135.195 91.2968 135.194C91.4933 135.195 91.6685 135.248 91.8224 135.354C91.9751 135.458 92.0952 135.603 92.1828 135.789C92.2692 135.973 92.3124 136.187 92.3124 136.43ZM91.9218 136.43C91.9218 136.265 91.8952 136.123 91.8419 136.004C91.7886 135.884 91.7135 135.792 91.6164 135.727C91.5193 135.662 91.4057 135.628 91.2755 135.627C91.1382 135.628 91.0168 135.664 90.9115 135.734C90.8061 135.804 90.7233 135.899 90.6629 136.02C90.6025 136.139 90.5724 136.276 90.5724 136.43C90.5724 136.585 90.6025 136.723 90.6629 136.845C90.7233 136.966 90.8061 137.061 90.9115 137.131C91.0168 137.2 91.1382 137.233 91.2755 137.232C91.4057 137.233 91.5193 137.202 91.6164 137.138C91.7135 137.073 91.7886 136.98 91.8419 136.859C91.8952 136.739 91.9218 136.595 91.9218 136.43ZM90.1959 136.43C90.1959 136.3 90.1699 136.184 90.1178 136.084C90.0657 135.982 89.9929 135.902 89.8994 135.844C89.8059 135.786 89.6964 135.756 89.5709 135.755C89.4478 135.756 89.3407 135.785 89.2496 135.842C89.1572 135.899 89.0862 135.978 89.0365 136.078C88.9856 136.179 88.9601 136.296 88.9601 136.43C88.9601 136.566 88.9856 136.685 89.0365 136.787C89.0862 136.888 89.1572 136.967 89.2496 137.023C89.3407 137.078 89.4478 137.106 89.5709 137.104C89.6964 137.106 89.8059 137.078 89.8994 137.021C89.9929 136.963 90.0657 136.883 90.1178 136.781C90.1699 136.68 90.1959 136.562 90.1959 136.43Z" fill="white" fill-opacity="0.7"/>
<rect opacity="0.6" x="107.708" y="45.6188" width="17.1875" height="102.5" fill="#00798C"/>
<rect x="107.708" y="45.6188" width="17.1875" height="0.9375" fill="#00798C"/>
<path d="M118.096 140.264L114.879 138.638H114.85V140.513H114.46V138.183H114.872L118.096 139.802V140.264ZM118.146 136.413C118.146 136.681 118.073 136.909 117.928 137.097C117.781 137.285 117.568 137.429 117.29 137.528C117.011 137.628 116.673 137.678 116.278 137.678C115.885 137.678 115.549 137.628 115.271 137.528C114.992 137.428 114.779 137.283 114.632 137.095C114.484 136.906 114.41 136.678 114.41 136.413C114.41 136.148 114.484 135.921 114.632 135.733C114.779 135.544 114.992 135.399 115.271 135.3C115.549 135.199 115.885 135.149 116.278 135.149C116.673 135.149 117.011 135.199 117.29 135.298C117.568 135.398 117.781 135.542 117.928 135.73C118.073 135.918 118.146 136.146 118.146 136.413ZM117.755 136.413C117.755 136.148 117.627 135.942 117.372 135.795C117.116 135.649 116.751 135.575 116.278 135.575C115.963 135.575 115.695 135.609 115.474 135.676C115.252 135.743 115.084 135.839 114.968 135.964C114.852 136.088 114.794 136.238 114.794 136.413C114.794 136.676 114.923 136.881 115.182 137.029C115.441 137.177 115.806 137.251 116.278 137.251C116.593 137.251 116.86 137.218 117.081 137.152C117.301 137.086 117.468 136.99 117.583 136.866C117.698 136.741 117.755 136.59 117.755 136.413Z" fill="white" fill-opacity="0.7"/>
<rect opacity="0.6" x="133.542" y="93.7368" width="17.1875" height="54.2562" fill="#00798C"/>
<rect x="133.542" y="93.7368" width="17.1875" height="0.9375" fill="#00798C"/>
<path d="M143.979 138.149C143.979 138.383 143.939 138.592 143.858 138.776C143.778 138.958 143.666 139.103 143.523 139.211C143.378 139.317 143.211 139.375 143.02 139.385V138.937C143.138 138.928 143.239 138.888 143.324 138.817C143.408 138.746 143.473 138.653 143.519 138.538C143.565 138.423 143.589 138.296 143.589 138.156C143.589 138 143.561 137.861 143.507 137.741C143.452 137.62 143.377 137.525 143.28 137.457C143.183 137.388 143.07 137.354 142.942 137.354C142.808 137.354 142.691 137.387 142.589 137.453C142.486 137.519 142.405 137.616 142.347 137.744C142.289 137.872 142.26 138.028 142.26 138.213V138.504H141.87V138.213C141.87 138.069 141.844 137.942 141.792 137.833C141.74 137.723 141.666 137.637 141.571 137.576C141.477 137.513 141.366 137.481 141.238 137.481C141.115 137.481 141.007 137.509 140.916 137.563C140.825 137.618 140.754 137.694 140.703 137.794C140.652 137.892 140.627 138.008 140.627 138.142C140.627 138.267 140.65 138.386 140.696 138.497C140.741 138.607 140.807 138.697 140.893 138.767C140.978 138.837 141.081 138.875 141.202 138.881V139.307C141.012 139.3 140.845 139.242 140.701 139.134C140.557 139.027 140.445 138.886 140.364 138.712C140.284 138.537 140.243 138.344 140.243 138.135C140.243 137.91 140.289 137.717 140.38 137.556C140.47 137.395 140.589 137.271 140.737 137.185C140.885 137.098 141.045 137.055 141.216 137.055C141.421 137.055 141.596 137.109 141.74 137.217C141.885 137.323 141.985 137.468 142.04 137.652H142.069C142.107 137.422 142.204 137.243 142.362 137.114C142.518 136.985 142.711 136.92 142.942 136.92C143.14 136.92 143.317 136.974 143.475 137.082C143.631 137.188 143.754 137.334 143.844 137.519C143.934 137.703 143.979 137.913 143.979 138.149ZM143.929 136.08L140.712 134.454H140.684V136.329H140.293V134H140.705L143.929 135.619V136.08Z" fill="white" fill-opacity="0.7"/>
<path d="M38.7501 32.4956C25.8334 32.4956 25.8334 9.16565 12.9167 9.16565V147.688H142.083V45.6188C129.167 45.6188 129.167 13.54 116.25 13.54C103.333 13.54 103.333 25.205 90.4167 25.205C77.5001 25.205 77.5001 61.6581 64.5834 61.6581C51.6667 61.6581 51.6667 32.4956 38.7501 32.4956Z" fill="url(#paint0_linear_54_1084)"/>
<path d="M12.9167 9.16565C25.8334 9.16565 25.8334 32.4957 38.7501 32.4957C51.6667 32.4957 51.6667 61.6582 64.5834 61.6582C77.5001 61.6582 77.5001 25.205 90.4168 25.205C103.333 25.205 103.333 13.54 116.25 13.54C129.167 13.54 129.167 45.6188 142.083 45.6188M142.083 45.6188V45.6188Z" stroke="#39C9C9" stroke-width="0.3125"/>
<circle opacity="0.25" cx="12.9167" cy="9.16565" r="2.34375" stroke="#39C9C9" stroke-width="0.3125"/>
<circle cx="12.9165" cy="9.16565" r="1.25" fill="#39C9C9"/>
<circle cx="12.9165" cy="9.16565" r="1.09375" stroke="white" stroke-opacity="0.1" stroke-width="0.3125"/>
<circle opacity="0.25" cx="38.75" cy="32.4957" r="2.34375" stroke="#39C9C9" stroke-width="0.3125"/>
<circle cx="38.75" cy="32.4957" r="1.25" fill="#39C9C9"/>
<circle cx="38.75" cy="32.4957" r="1.09375" stroke="white" stroke-opacity="0.1" stroke-width="0.3125"/>
<circle opacity="0.25" cx="64.5833" cy="61.658" r="2.34375" stroke="#39C9C9" stroke-width="0.3125"/>
<circle cx="64.5833" cy="61.6581" r="1.25" fill="#39C9C9"/>
<circle cx="64.5833" cy="61.6581" r="1.09375" stroke="white" stroke-opacity="0.1" stroke-width="0.3125"/>
<circle opacity="0.25" cx="90.4167" cy="25.2051" r="2.34375" stroke="#39C9C9" stroke-width="0.3125"/>
<circle cx="90.4165" cy="25.2051" r="1.25" fill="#39C9C9"/>
<circle cx="90.4165" cy="25.2051" r="1.09375" stroke="white" stroke-opacity="0.1" stroke-width="0.3125"/>
<circle opacity="0.25" cx="116.25" cy="13.5399" r="2.34375" stroke="#39C9C9" stroke-width="0.3125"/>
<circle cx="116.25" cy="13.5399" r="1.25" fill="#39C9C9"/>
<circle cx="116.25" cy="13.5399" r="1.09375" stroke="white" stroke-opacity="0.1" stroke-width="0.3125"/>
<circle opacity="0.25" cx="142.083" cy="45.6188" r="2.34375" stroke="#39C9C9" stroke-width="0.3125"/>
<circle cx="142.083" cy="45.6188" r="1.25" fill="#39C9C9"/>
<circle cx="142.083" cy="45.6188" r="1.09375" stroke="white" stroke-opacity="0.1" stroke-width="0.3125"/>
<defs>
<linearGradient id="paint0_linear_54_1084" x1="77.5001" y1="9.16565" x2="77.5001" y2="147.688" gradientUnits="userSpaceOnUse">
<stop stop-color="#39C9C9" stop-opacity="0.3"/>
<stop offset="1" stop-color="#39C9C9" stop-opacity="0.05"/>
</linearGradient>
</defs>
</svg>
