<svg width="64" height="64" viewBox="0 0 64 64" fill="none" xmlns="http://www.w3.org/2000/svg">
<path d="M44.9727 16.9439C45.6762 18.4256 46.2007 19.9825 46.5356 21.5829C49.0797 22.9337 51.2662 24.8464 52.9214 27.1687C54.5766 29.491 55.6548 32.1589 56.0701 34.9603C56.4854 37.7616 56.2264 40.6191 55.3138 43.3054C54.4012 45.9917 52.8601 48.4326 50.813 50.4342C48.766 52.4358 46.2695 53.9426 43.5222 54.835C40.7748 55.7273 37.8524 55.9805 34.9874 55.5745C32.1224 55.1684 29.3938 54.1142 27.0187 52.4958C24.6436 50.8774 22.6875 48.7394 21.306 46.2519C19.6692 45.9244 18.077 45.4115 16.5615 44.7237C17.8013 48.2182 19.9287 51.3474 22.7442 53.8176C25.5598 56.2879 28.971 58.0181 32.6579 58.8461C36.3447 59.674 40.1863 59.5724 43.8219 58.5509C47.4576 57.5293 50.7683 55.6213 53.4431 53.0059C56.118 50.3905 58.0694 47.1534 59.1141 43.5985C60.1589 40.0436 60.2628 36.2874 59.4161 32.6825C58.5693 29.0776 56.7997 25.7421 54.2733 22.9892C51.7469 20.2362 48.5466 18.156 44.9727 16.9439Z" fill="url(#paint0_linear_72_1513)"/>
<path d="M37.2825 15.4927C39.7544 15.487 42.2094 15.8993 44.5439 16.7121C43.1056 13.6093 40.9396 10.8995 38.2298 8.81293C35.5201 6.72637 32.3468 5.3247 28.9795 4.72701C25.6121 4.12932 22.1502 4.35327 18.888 5.37983C15.6257 6.40639 12.6594 8.20522 10.2411 10.6235C7.8228 13.0418 6.02396 16.0081 4.9974 19.2704C3.97084 22.5327 3.7469 25.9945 4.34459 29.3619C4.94228 32.7292 6.34395 35.9026 8.43051 38.6123C10.5171 41.322 13.2269 43.488 16.3297 44.9263C15.5169 42.5919 15.1046 40.1368 15.1102 37.6649C15.1102 31.7845 17.4462 26.1449 21.6043 21.9868C25.7624 17.8287 31.402 15.4927 37.2825 15.4927Z" fill="url(#paint1_linear_72_1513)"/>
<path d="M19.4561 37.5288C19.4555 40.6364 20.2047 43.6948 21.6354 46.4264C24.9877 47.132 28.4566 46.9667 31.7321 45.9453C35.0077 44.924 37.988 43.0783 40.4069 40.5732C42.8258 38.0681 44.6079 34.9815 45.5942 31.5892C46.5804 28.1968 46.7399 24.6043 46.0586 21.1325C43.3151 19.5905 40.2317 18.8134 37.1108 18.8773C33.9899 18.9413 30.9386 19.8442 28.2561 21.4975C25.5737 23.1508 23.3522 25.4978 21.8094 28.3082C20.2667 31.1186 19.4558 34.296 19.4561 37.5288Z" fill="url(#paint2_linear_72_1513)"/>
<defs>
<linearGradient id="paint0_linear_72_1513" x1="16.5615" y1="38.1719" x2="59.9826" y2="38.1719" gradientUnits="userSpaceOnUse">
<stop stop-color="#39C9C9"/>
<stop offset="1" stop-color="#00798C"/>
</linearGradient>
<linearGradient id="paint1_linear_72_1513" x1="4.01758" y1="24.6632" x2="44.5439" y2="24.6632" gradientUnits="userSpaceOnUse">
<stop stop-color="#39C9C9"/>
<stop offset="1" stop-color="#00798C"/>
</linearGradient>
<linearGradient id="paint2_linear_72_1513" x1="19.4561" y1="32.8649" x2="46.4736" y2="32.8649" gradientUnits="userSpaceOnUse">
<stop stop-color="#39C9C9"/>
<stop offset="1" stop-color="#00798C"/>
</linearGradient>
</defs>
</svg>
