<svg width="64" height="64" viewBox="0 0 64 64" fill="none" xmlns="http://www.w3.org/2000/svg">
<path d="M56.0095 18.1232C55.9411 16.6184 55.9411 15.182 55.9411 13.7456C55.9411 12.5828 55.0519 11.6936 53.8891 11.6936C45.339 11.6936 38.8409 9.23115 33.4373 3.96431C32.6165 3.2119 31.3853 3.2119 30.5645 3.96431C25.1608 9.23115 18.6628 11.6936 10.1127 11.6936C8.94988 11.6936 8.06067 12.5828 8.06067 13.7456C8.06067 15.182 8.06067 16.6184 7.99227 18.1232C7.71867 32.4874 7.30826 52.1867 31.3169 60.4632L32.0009 60.6L32.6849 60.4632C56.6251 52.1867 56.2831 32.5558 56.0095 18.1232ZM30.3593 38.0278C29.9489 38.3698 29.4701 38.575 28.9229 38.575H28.8545C28.3072 38.575 27.76 38.3014 27.418 37.891L21.0568 30.8457L24.1348 28.1097L29.1281 33.6502L40.209 23.1165L43.0134 26.1261L30.3593 38.0278Z" fill="url(#paint0_linear_72_1536)"/>
<defs>
<linearGradient id="paint0_linear_72_1536" x1="7.92969" y1="32" x2="56.0699" y2="32" gradientUnits="userSpaceOnUse">
<stop stop-color="#39C9C9"/>
<stop offset="1" stop-color="#00798C"/>
</linearGradient>
</defs>
</svg>
