<svg width="64" height="64" viewBox="0 0 64 64" fill="none" xmlns="http://www.w3.org/2000/svg">
<path d="M23.7755 30.442V24.1813C23.7755 22.882 24.8328 21.8247 26.1321 21.8247C27.4315 21.8247 28.4888 22.882 28.4888 24.1813V24.9747V31.66L27.6521 31.064C26.3908 30.1693 24.9588 29.966 23.7755 30.442ZM41.3061 39.2807C40.6421 40.264 39.5181 40.9113 38.2455 40.9113C37.9635 40.9113 37.7041 40.876 37.4528 40.8233C36.3241 41.5687 35.1581 42.056 33.9808 42.2827C35.8348 44.5707 36.5368 47.62 35.8135 50.534C35.7381 50.8373 35.4661 51.04 35.1668 51.04C35.1135 51.04 35.0595 51.034 35.0055 51.0207C34.6481 50.932 34.4308 50.57 34.5195 50.2127C35.2181 47.3993 34.3695 44.4407 32.3095 42.428C30.8695 42.4053 29.4288 42.002 28.0315 41.2L24.7235 39.2913C24.4048 39.1073 24.2955 38.6993 24.4795 38.3807C24.6635 38.0613 25.0701 37.9513 25.3901 38.1367L28.6968 40.0447C32.1115 42.004 35.0655 40.9267 37.1155 39.4393L26.8795 32.152C25.9915 31.522 24.5981 31.1353 23.5948 32.122L18.7041 37.0127C17.2301 38.4867 16.9121 40.634 17.8955 42.4833L22.6381 51.384C24.0715 54.0727 24.7388 56.7307 24.7388 59.7473V59.7987H41.7175V59.5393C41.7175 57.3093 42.0681 55.3667 42.8548 53.242L45.5975 46.018C46.3388 44.084 46.6688 42.292 46.6688 40.2073V39.964C46.0294 40.4967 45.2075 40.8173 44.3121 40.8173C43.0748 40.8173 41.9801 40.2087 41.3061 39.2807ZM34.5555 35.936V26.2607V24.9753C34.5555 23.6653 33.4981 22.6 32.1988 22.6C30.8888 22.6 29.8228 23.666 29.8228 24.9753V32.61L34.5515 35.9773C34.5515 35.9633 34.5555 35.95 34.5555 35.936ZM38.8928 39.3853C38.8941 39.4193 38.8781 39.4493 38.8748 39.482C39.8681 39.2047 40.6028 38.3013 40.6028 37.2207V37.126V29.0193V26.26C40.6028 24.9607 39.5455 23.9033 38.2461 23.9033C36.9468 23.9033 35.8895 24.9607 35.8895 26.26V35.936V36.93L38.6141 38.87C38.7808 38.9893 38.8841 39.18 38.8928 39.3853ZM44.3121 26.6627C43.0021 26.6627 41.9361 27.72 41.9361 29.0193V37.126C41.9361 38.426 43.0021 39.4833 44.3121 39.4833C45.6115 39.4833 46.6688 38.426 46.6688 37.126V35.7087V29.0193C46.6688 27.72 45.6115 26.6627 44.3121 26.6627ZM31.9901 14.9647C32.3581 14.9647 32.6568 14.6667 32.6568 14.298V4.86867C32.6568 4.5 32.3581 4.202 31.9901 4.202C31.6221 4.202 31.3235 4.5 31.3235 4.86867V14.2987C31.3235 14.6667 31.6221 14.9647 31.9901 14.9647ZM21.3895 17.8187C21.5028 17.8187 21.6175 17.79 21.7228 17.7293C22.0415 17.5447 22.1501 17.1367 21.9661 16.818L17.2421 8.65333C17.0575 8.33467 16.6495 8.22667 16.3308 8.41067C16.0121 8.59467 15.9035 9.00333 16.0875 9.32133L20.8115 17.4853C20.9355 17.6993 21.1595 17.8187 21.3895 17.8187ZM13.9368 24.3413L5.77279 19.6353C5.45279 19.4513 5.04545 19.5607 4.86212 19.88C4.67812 20.1993 4.78745 20.6067 5.10679 20.79L13.2708 25.496C13.3761 25.5567 13.4901 25.5853 13.6035 25.5853C13.8341 25.5853 14.0581 25.4653 14.1815 25.252C14.3648 24.9327 14.2555 24.5247 13.9368 24.3413ZM11.4355 35.5393C11.4355 35.1713 11.1368 34.8727 10.7688 34.8727H1.33879C0.970786 34.8727 0.672119 35.1713 0.672119 35.5393C0.672119 35.908 0.970786 36.206 1.33879 36.206H10.7695C11.1375 36.206 11.4355 35.9073 11.4355 35.5393ZM13.2708 45.582L5.10679 50.288C4.78745 50.4713 4.67812 50.8793 4.86212 51.198C4.98545 51.412 5.20945 51.532 5.44012 51.532C5.55279 51.532 5.66745 51.5033 5.77279 51.4427L13.9368 46.7367C14.2561 46.5533 14.3655 46.1453 14.1815 45.8267C13.9968 45.508 13.5888 45.398 13.2708 45.582ZM47.6694 8.41067C47.3501 8.22667 46.9428 8.33533 46.7581 8.65333L42.0341 16.8173C41.8501 17.1367 41.9588 17.544 42.2775 17.7287C42.3828 17.7893 42.4975 17.818 42.6108 17.818C42.8408 17.818 43.0648 17.6987 43.1888 17.4853L47.9128 9.32133C48.0968 9.00333 47.9881 8.59533 47.6694 8.41067ZM50.3975 25.5853C50.5101 25.5853 50.6248 25.5567 50.7301 25.496L58.8941 20.79C59.2135 20.6067 59.3228 20.1987 59.1388 19.88C58.9548 19.5607 58.5461 19.4507 58.2281 19.6353L50.0641 24.3413C49.7448 24.5247 49.6354 24.9333 49.8195 25.252C49.9428 25.4653 50.1668 25.5853 50.3975 25.5853ZM62.6614 34.8727H53.2315C52.8635 34.8727 52.5648 35.1713 52.5648 35.5393C52.5648 35.908 52.8635 36.206 53.2315 36.206H62.6621C63.0301 36.206 63.3288 35.908 63.3288 35.5393C63.3281 35.1713 63.0294 34.8727 62.6614 34.8727ZM58.8934 50.288L50.7295 45.582C50.4095 45.398 50.0028 45.508 49.8188 45.8267C49.6348 46.1453 49.7441 46.5533 50.0635 46.7367L58.2275 51.4427C58.3328 51.5033 58.4468 51.532 58.5601 51.532C58.7908 51.532 59.0148 51.412 59.1381 51.198C59.3221 50.8787 59.2128 50.4713 58.8934 50.288Z" fill="url(#paint0_linear_72_1510)"/>
<defs>
<linearGradient id="paint0_linear_72_1510" x1="0.672119" y1="32.0003" x2="63.3288" y2="32.0003" gradientUnits="userSpaceOnUse">
<stop stop-color="#39C9C9"/>
<stop offset="1" stop-color="#00798C"/>
</linearGradient>
</defs>
</svg>
