<svg width="1748" height="1981" viewBox="0 0 1748 1981" fill="none" xmlns="http://www.w3.org/2000/svg">
<g opacity="0.5" filter="url(#filter0_f_47_352)">
<path d="M813.195 929.947L871.734 867.543L931.413 931.163L1100.47 498.519L866.382 200L636.892 494.645L813.195 929.947Z" fill="url(#paint0_linear_47_352)"/>
<path d="M750.441 1124.09L690.762 1060.47L749.356 998.002L378.017 827.153L200 1055.67L407.146 1276.49L750.441 1124.09Z" fill="url(#paint1_linear_47_352)"/>
<path d="M933.674 1194.49L875.08 1256.95L815.457 1193.4L672.437 1559.3L879.979 1780.55L1083.25 1563.86L933.674 1194.49Z" fill="url(#paint2_linear_47_352)"/>
<path d="M996.429 1000.47L1056.05 1064.03L997.513 1126.44L1344 1285.89L1547.6 1068.84L1365.45 836.504L996.429 1000.47Z" fill="url(#paint3_linear_47_352)"/>
</g>
<defs>
<filter id="filter0_f_47_352" x="0" y="0" width="1747.6" height="1980.55" filterUnits="userSpaceOnUse" color-interpolation-filters="sRGB">
<feFlood flood-opacity="0" result="BackgroundImageFix"/>
<feBlend mode="normal" in="SourceGraphic" in2="BackgroundImageFix" result="shape"/>
<feGaussianBlur stdDeviation="100" result="effect1_foregroundBlur_47_352"/>
</filter>
<linearGradient id="paint0_linear_47_352" x1="858.996" y1="207.875" x2="865.601" y2="939.795" gradientUnits="userSpaceOnUse">
<stop stop-color="#39C9C9" stop-opacity="0"/>
<stop offset="1" stop-color="#39C9C9"/>
</linearGradient>
<linearGradient id="paint1_linear_47_352" x1="207.048" y1="1063.18" x2="741.003" y2="1032.42" gradientUnits="userSpaceOnUse">
<stop stop-color="#00798C" stop-opacity="0"/>
<stop offset="1" stop-color="#00798C"/>
</linearGradient>
<linearGradient id="paint2_linear_47_352" x1="865.694" y1="1202.65" x2="870.629" y2="1780.63" gradientUnits="userSpaceOnUse">
<stop stop-color="#00798C"/>
<stop offset="1" stop-color="#00798C" stop-opacity="0"/>
</linearGradient>
<linearGradient id="paint3_linear_47_352" x1="986.542" y1="1069.81" x2="1549.69" y2="1057.11" gradientUnits="userSpaceOnUse">
<stop stop-color="#00798C"/>
<stop offset="1" stop-color="#00798C" stop-opacity="0"/>
</linearGradient>
</defs>
</svg>
