<svg width="64" height="64" viewBox="0 0 64 64" fill="none" xmlns="http://www.w3.org/2000/svg">
<rect width="64" height="64" rx="12.8" fill="url(#paint0_linear_69_503)"/>
<path d="M25.009 43.3067C24.6677 43.4204 24.369 43.3778 24.113 43.1787C23.857 42.9795 23.7575 42.6809 23.8144 42.2827L25.0944 34.7733L19.4624 29.3973C19.2348 29.1129 19.1637 28.8 19.249 28.4587C19.3344 28.1173 19.5761 27.9182 19.9744 27.8613L27.7397 26.752L31.2384 19.84C31.409 19.4987 31.665 19.328 32.0064 19.328C32.3477 19.328 32.6037 19.4987 32.7744 19.84L36.273 26.752L44.1237 27.8613C44.465 27.9182 44.6784 28.1173 44.7637 28.4587C44.849 28.8 44.7779 29.1129 44.5504 29.3973L38.9184 34.7733L40.1984 42.2827C40.2552 42.6809 40.1557 42.9795 39.8997 43.1787C39.6437 43.3778 39.345 43.4204 39.0037 43.3067L32.0064 39.6373L25.009 43.3067Z" fill="white"/>
<defs>
<linearGradient id="paint0_linear_69_503" x1="0" y1="32" x2="64" y2="32" gradientUnits="userSpaceOnUse">
<stop stop-color="#39C9C9"/>
<stop offset="1" stop-color="#00798C"/>
</linearGradient>
</defs>
</svg>
