<svg width="160" height="58" viewBox="0 0 160 58" fill="none" xmlns="http://www.w3.org/2000/svg">
<path d="M23.8889 25.2602H27.7143V29.0893L46.499 21.493L48 5L31.4705 6.50467L23.8889 25.2602Z" fill="#39C9C9"/>
<path d="M15.8883 29.0892V25.2602H19.7173L12.8206 8.20605L0 9.3719V22.6625L15.8883 29.0892Z" fill="#00798C"/>
<path d="M19.7173 37.0862H15.8883V33.2607L0 39.6838V52.9999H13.2833L19.7173 37.0862Z" fill="#00798C"/>
<path d="M27.7143 33.2607V37.0862H23.8889L30.3229 52.9999H43.6281L44.7976 40.1647L27.7143 33.2607Z" fill="#00798C"/>
<path d="M143.801 11.5981V15.1337H142.254C141.149 15.1337 140.321 15.4652 139.824 16.1281C139.299 16.791 139.05 17.7025 139.05 18.835V25.7957H135.156V11.5981H138.691L139.05 13.725C139.464 13.0345 139.989 12.5097 140.625 12.1506C141.232 11.7915 142.089 11.5981 143.138 11.5981H143.801Z" fill="white"/>
<path d="M119.437 14.8851C120.045 13.7802 120.874 12.9516 121.951 12.3439C123.028 11.7362 124.271 11.4324 125.707 11.4324C127.144 11.4324 128.387 11.7362 129.492 12.2886C130.596 12.8411 131.453 13.6421 132.06 14.6641C132.668 15.6861 132.999 16.8738 133.027 18.2549C133.027 18.7521 132.972 19.1941 132.917 19.5808H122.614V19.6912C122.697 20.7409 123.028 21.5419 123.608 22.1219C124.161 22.7296 124.962 23.0058 125.956 23.0058C126.729 23.0058 127.392 22.8401 127.917 22.5087C128.442 22.1772 128.801 21.6524 128.967 20.9895H132.806C132.64 21.9286 132.281 22.7849 131.729 23.5307C131.149 24.3041 130.403 24.8841 129.464 25.3261C128.525 25.768 127.448 25.9614 126.232 25.9614C124.63 25.9614 123.277 25.6851 122.117 25.0775C120.956 24.4974 120.073 23.6688 119.465 22.5639C118.857 21.459 118.553 20.1884 118.553 18.7245C118.553 17.2605 118.83 15.9899 119.437 14.8851ZM129.132 17.0396C128.994 16.1833 128.635 15.5204 128.055 15.0508C127.475 14.5812 126.757 14.3326 125.873 14.3326C125.017 14.3326 124.299 14.5812 123.719 15.0784C123.139 15.5756 122.807 16.2109 122.697 17.0396H129.132Z" fill="white"/>
<path d="M103.387 14.8851C103.995 13.7802 104.824 12.9516 105.901 12.3439C106.978 11.7362 108.221 11.4324 109.658 11.4324C111.094 11.4324 112.337 11.7362 113.442 12.2886C114.547 12.8411 115.403 13.6421 116.011 14.6641C116.618 15.6861 116.95 16.8738 116.977 18.2549C116.977 18.7521 116.922 19.1941 116.867 19.5808H106.564V19.6912C106.647 20.7409 106.978 21.5419 107.558 22.1219C108.111 22.7296 108.912 23.0058 109.906 23.0058C110.68 23.0058 111.342 22.8401 111.867 22.5087C112.392 22.1772 112.751 21.6524 112.917 20.9895H116.756C116.591 21.9286 116.231 22.7849 115.679 23.5307C115.099 24.3041 114.353 24.8841 113.414 25.3261C112.475 25.768 111.398 25.9614 110.182 25.9614C108.58 25.9614 107.227 25.6851 106.067 25.0775C104.907 24.4974 104.023 23.6688 103.415 22.5639C102.807 21.459 102.504 20.1884 102.504 18.7245C102.504 17.2605 102.78 15.9899 103.387 14.8851ZM113.083 17.0396C112.945 16.1833 112.585 15.5204 112.005 15.0508C111.425 14.5812 110.707 14.3326 109.823 14.3326C108.967 14.3326 108.249 14.5812 107.669 15.0784C107.089 15.5756 106.757 16.2109 106.647 17.0396H113.083Z" fill="white"/>
<path d="M101.775 11.5981V15.1337H100.228C99.1234 15.1337 98.2948 15.4652 97.7976 16.1281C97.2728 16.791 97.0242 17.7025 97.0242 18.835V25.7957H93.1295V11.5981H96.6651L97.0242 13.725C97.4385 13.0345 97.9633 12.5097 98.5986 12.1506C99.2063 11.7915 100.063 11.5981 101.112 11.5981H101.775Z" fill="white"/>
<path d="M91.6229 22.5087V25.7956H89.6341C87.8387 25.7956 86.9548 25.0222 87.01 23.4754C86.4852 24.3041 85.8499 24.9117 85.1041 25.3261C84.3307 25.768 83.4192 25.9614 82.3696 25.9614C80.7676 25.9614 79.497 25.6023 78.5302 24.8841C77.5634 24.166 77.0939 23.1163 77.0939 21.7905C77.0939 20.2989 77.6463 19.1388 78.7512 18.3102C79.856 17.4815 81.4857 17.0672 83.6126 17.0672H86.43V16.3766C86.43 15.7413 86.1814 15.2442 85.7118 14.8575C85.2146 14.4708 84.5793 14.2774 83.7783 14.2774C83.0601 14.2774 82.4525 14.4431 82.0105 14.747C81.541 15.0784 81.2647 15.4928 81.1819 16.0176H77.4253C77.5358 14.5812 78.1987 13.4488 79.3588 12.6477C80.519 11.8467 82.0381 11.4324 83.9717 11.4324C85.9604 11.4324 87.5072 11.8743 88.6121 12.7582C89.717 13.6421 90.2694 14.9403 90.2694 16.5976V21.5971C90.2694 21.9562 90.3246 22.2048 90.4904 22.3153C90.6285 22.4534 90.8495 22.5087 91.1809 22.5087H91.6229ZM86.43 19.6636H83.585C82.7563 19.6636 82.121 19.8294 81.6791 20.1608C81.2371 20.4923 81.0161 20.9342 81.0161 21.5143C81.0161 22.0115 81.1819 22.4258 81.5686 22.702C81.9553 23.0058 82.4525 23.144 83.1154 23.144C84.1098 23.144 84.9108 22.8677 85.5185 22.2877C86.0985 21.7076 86.4024 20.9342 86.43 19.9398V19.6636Z" fill="white"/>
<path d="M58.9147 10.9629C59.6881 9.47129 60.7654 8.3388 62.2017 7.51015C63.638 6.70912 65.3229 6.2948 67.2565 6.2948C68.748 6.2948 70.1015 6.59864 71.3168 7.17869C72.5046 7.78637 73.4713 8.61502 74.2171 9.66464C74.9353 10.7419 75.3772 11.9849 75.5429 13.3659H71.3997C71.1511 12.2611 70.6539 11.4048 69.8805 10.7695C69.1071 10.1342 68.168 9.80275 67.0355 9.80275C65.4887 9.80275 64.2457 10.3828 63.3618 11.5429C62.4503 12.703 62.0083 14.2498 62.0083 16.1281C62.0083 18.0064 62.4503 19.5532 63.3618 20.7133C64.2457 21.8734 65.4887 22.4535 67.0355 22.4535C68.168 22.4535 69.1071 22.1496 69.8805 21.5143C70.6539 20.879 71.1511 19.9951 71.3997 18.8903H75.5429C75.3772 20.299 74.9353 21.5419 74.2171 22.5916C73.4713 23.6688 72.5046 24.4975 71.3168 25.0775C70.1015 25.6852 68.748 25.9614 67.2565 25.9614C65.3229 25.9614 63.638 25.5747 62.2017 24.7461C60.7654 23.945 59.6881 22.8125 58.9147 21.321C58.1413 19.8294 57.7822 18.1169 57.7822 16.1281C57.7822 14.167 58.1413 12.4544 58.9147 10.9629Z" fill="white"/>
<path d="M119.223 33.4847V52.8199H115.825L115.438 50.8588C114.334 52.2951 112.87 52.9856 111.019 52.9856C109.748 52.9856 108.644 52.7094 107.649 52.1017C106.655 51.4941 105.854 50.6378 105.301 49.5329C104.749 48.4281 104.473 47.1575 104.473 45.6935C104.473 44.2572 104.749 43.0142 105.301 41.9093C105.854 40.8045 106.655 39.9758 107.649 39.3682C108.644 38.7605 109.776 38.4566 111.047 38.4566C112.87 38.4566 114.306 39.1196 115.328 40.3902V33.4847H119.223ZM114.444 48.7043C115.052 47.9585 115.383 46.9641 115.383 45.7488C115.383 44.5334 115.052 43.539 114.444 42.7656C113.809 42.0198 112.98 41.6331 111.931 41.6331C110.881 41.6331 110.025 42.0198 109.389 42.7656C108.754 43.539 108.45 44.5058 108.45 45.7211C108.45 46.9365 108.754 47.9309 109.389 48.6766C110.025 49.4501 110.881 49.8091 111.931 49.8091C112.98 49.8091 113.809 49.4501 114.444 48.7043Z" fill="white"/>
<path d="M100.969 40.0036C102.019 41.0532 102.571 42.7381 102.571 45.1136V52.82H98.6767V45.3346C98.6767 42.9039 97.7099 41.6609 95.8041 41.6609C94.7821 41.6609 94.0086 42.02 93.4562 42.6829C92.9038 43.3734 92.6276 44.3402 92.6276 45.5556V52.82H88.7329V38.6225H92.1304L92.4895 40.3903C92.9866 39.7826 93.5667 39.3131 94.2849 38.9816C94.9754 38.6501 95.8317 38.4568 96.8813 38.4568C98.5386 38.4568 99.8921 38.9816 100.969 40.0036Z" fill="white"/>
<path d="M86.0249 38.6224V52.82H82.5722L82.2132 51.1074C81.716 51.7151 81.1359 52.157 80.473 52.4885C79.8101 52.82 78.9814 52.9857 78.0423 52.9857C76.385 52.9857 75.0315 52.4885 73.9819 51.4665C72.9323 50.4445 72.4075 48.732 72.4075 46.3289V38.6224H76.3021V45.8593C76.3021 47.1575 76.5231 48.1243 76.965 48.7872C77.407 49.4501 78.1252 49.754 79.0643 49.754C80.031 49.754 80.7768 49.3949 81.3293 48.6767C81.8541 47.9586 82.1303 46.9366 82.1303 45.6107V38.6224H86.0249Z" fill="white"/>
<path d="M58.5557 33.4847H71.3169V37.0479H62.6989V41.5779H69.7701V44.9753H62.6989V52.8199H58.5557V33.4847Z" fill="white"/>
</svg>
